<svg width="1500" height="1500" viewBox="0 0 1500 1500" fill="none" xmlns="http://www.w3.org/2000/svg">
<path fill-rule="evenodd" clip-rule="evenodd" d="M474.266 408.965H1023.61C1054.76 408.965 1080.01 434.207 1080.01 465.345V1040.42C1080.01 1071.56 1054.76 1096.8 1023.61 1096.8H474.266C443.117 1096.8 417.865 1071.56 417.865 1040.42V465.345C417.865 434.207 443.117 408.965 474.266 408.965ZM474.266 442.793C461.806 442.793 451.706 452.89 451.706 465.345V1040.42C451.706 1052.88 461.806 1062.97 474.266 1062.97H1023.61C1036.07 1062.97 1046.17 1052.88 1046.17 1040.42V465.345C1046.17 452.89 1036.07 442.793 1023.61 442.793H474.266Z" fill="white"/>
<path d="M636.699 440.538H1061.96V1075.38H636.699V440.538Z" fill="white"/>
<path fill-rule="evenodd" clip-rule="evenodd" d="M290.4 153H1208.6C1239.75 153 1265 178.242 1265 209.38V337.926C1265 369.064 1239.75 394.306 1208.6 394.306H290.4C259.251 394.306 234 369.064 234 337.926V209.38C234 178.242 259.251 153 290.4 153ZM290.4 186.828C277.941 186.828 267.84 196.925 267.84 209.38V337.926C267.84 350.381 277.941 360.478 290.4 360.478H1208.6C1221.06 360.478 1231.16 350.381 1231.16 337.926V209.38C1231.16 196.925 1221.06 186.828 1208.6 186.828H290.4Z" fill="white"/>
<path d="M636.699 187.956C636.699 184.842 639.224 182.318 642.339 182.318H1225.52C1228.63 182.318 1231.16 184.842 1231.16 187.956V361.606C1231.16 364.72 1228.63 367.244 1225.52 367.244H642.339C639.224 367.244 636.699 364.72 636.699 361.606V187.956Z" fill="white"/>
<path fill-rule="evenodd" clip-rule="evenodd" d="M290.4 1104.69H1208.6C1239.75 1104.69 1265 1129.94 1265 1161.07V1289.62C1265 1320.76 1239.75 1346 1208.6 1346H290.4C259.251 1346 234 1320.76 234 1289.62V1161.07C234 1129.94 259.251 1104.69 290.4 1104.69ZM290.4 1138.52C277.941 1138.52 267.84 1148.62 267.84 1161.07V1289.62C267.84 1302.08 277.941 1312.17 290.4 1312.17H1208.6C1221.06 1312.17 1231.16 1302.08 1231.16 1289.62V1161.07C1231.16 1148.62 1221.06 1138.52 1208.6 1138.52H290.4Z" fill="white"/>
<path d="M636.699 1139.65C636.699 1136.54 639.224 1134.01 642.339 1134.01H1225.52C1228.63 1134.01 1231.16 1136.54 1231.16 1139.65V1313.3C1231.16 1316.41 1228.63 1318.94 1225.52 1318.94H642.339C639.224 1318.94 636.699 1316.41 636.699 1313.3V1139.65Z" fill="white"/>
</svg>
